HIERARCHY
ROOT Hips
{
	OFFSET 0.000000 0.000000 0.000000
	CHANNELS 6 Xposition Yposition Zposition Xrotation Yrotation Zrotation
	JOINT LeftUpLeg_virtual
	{
		OFFSET 0.000000 0.000000 0.000000
		CHANNELS 3 Xrotation Yrotation Zrotation
		JOINT LeftUpLeg
		{
			OFFSET 10.205400 -3.823500 0.155100
			CHANNELS 3 Xrotation Yrotation Zrotation
			JOINT LeftLeg
			{
				OFFSET 0.708757 -12.982077 0.567790
				CHANNELS 3 Xrotation Yrotation Zrotation
				JOINT LeftFoot
				{
					OFFSET -0.708756 -10.717838 -2.184338
					CHANNELS 3 Xrotation Yrotation Zrotation
					JOINT LeftToeBase
					{
						OFFSET 0.108149 -7.191104 7.560241
						CHANNELS 3 Xrotation Yrotation Zrotation
						JOINT LeftToe_End
						{
							OFFSET 0.070230 0.081724 4.490308
							CHANNELS 3 Xrotation Yrotation Zrotation
							End Site
							{
								OFFSET 0 0 0
							}
						}
					}
				}
			}
		}
	}
	JOINT RightUpLeg_virtual
	{
		OFFSET 0.000000 0.000000 0.000000
		CHANNELS 3 Xrotation Yrotation Zrotation
		JOINT RightUpLeg
		{
			OFFSET -10.205400 -3.823500 0.005500
			CHANNELS 3 Xrotation Yrotation Zrotation
			JOINT RightLeg
			{
				OFFSET -0.708756 -12.982134 0.610632
				CHANNELS 3 Xrotation Yrotation Zrotation
				JOINT RightFoot
				{
					OFFSET 0.708754 -10.717769 -1.945823
					CHANNELS 3 Xrotation Yrotation Zrotation
					JOINT RightToeBase
					{
						OFFSET -0.108140 -7.191069 7.372968
						CHANNELS 3 Xrotation Yrotation Zrotation
						JOINT RightToe_End
						{
							OFFSET -0.070227 0.081735 4.479403
							CHANNELS 3 Xrotation Yrotation Zrotation
							End Site
							{
								OFFSET 0 0 0
							}
						}
					}
				}
			}
		}
	}
	JOINT Spine_virtual
	{
		OFFSET 0.000000 0.000000 0.000000
		CHANNELS 3 Xrotation Yrotation Zrotation
		JOINT Spine
		{
			OFFSET 0.000000 6.876099 0.125700
			CHANNELS 3 Xrotation Yrotation Zrotation
			JOINT Spine1
			{
				OFFSET 0.000000 5.730043 0.104720
				CHANNELS 3 Xrotation Yrotation Zrotation
				JOINT Spine1_split
				{
					OFFSET 0.000000 5.730043 0.104720
					CHANNELS 3 Xrotation Yrotation Zrotation
					JOINT Spine2
					{
						OFFSET 0.000000 5.730043 0.104720
						CHANNELS 3 Xrotation Yrotation Zrotation
						JOINT Neck_virtual
						{
							OFFSET 0.000000 0.000000 0.000000
							CHANNELS 3 Xrotation Yrotation Zrotation
							JOINT Neck
							{
								OFFSET 0.000000 10.314075 0.188496
								CHANNELS 3 Xrotation Yrotation Zrotation
								JOINT Head
								{
									OFFSET 0.000000 7.643700 -2.377400
									CHANNELS 3 Xrotation Yrotation Zrotation
									JOINT HeadTop_End
									{
										OFFSET 0.000000 43.788605 -13.619600
										CHANNELS 3 Xrotation Yrotation Zrotation
										End Site
										{
											OFFSET 0 0 0
										}
									}
								}
							}
						}
						JOINT LeftShoulder_virtual
						{
							OFFSET 0.000000 0.000000 0.000000
							CHANNELS 3 Xrotation Yrotation Zrotation
							JOINT LeftShoulder
							{
								OFFSET 2.196100 4.412489 0.087492
								CHANNELS 3 Xrotation Yrotation Zrotation
								JOINT LeftShoulder_split
								{
									OFFSET 2.196100 4.412489 0.087492
									CHANNELS 3 Xrotation Yrotation Zrotation
									JOINT LeftArm
									{
										OFFSET 8.771219 -2.981674 -0.026999
										CHANNELS 3 Xrotation Yrotation Zrotation
										JOINT LeftForeArm
										{
											OFFSET 8.512804 0.000000 -0.000000
											CHANNELS 3 Xrotation Yrotation Zrotation
											JOINT LeftHand
											{
												OFFSET 18.484802 0.000000 -0.000000
												CHANNELS 3 Xrotation Yrotation Zrotation
												End Site
												{
													OFFSET 0 0 0
												}
											}
										}
									}
								}
							}
						}
						JOINT RightShoulder_virtual
						{
							OFFSET 0.000000 0.000000 0.000000
							CHANNELS 3 Xrotation Yrotation Zrotation
							JOINT RightShoulder
							{
								OFFSET -2.196100 4.412496 0.070690
								CHANNELS 3 Xrotation Yrotation Zrotation
								JOINT RightShoulder_split
								{
									OFFSET -2.196100 4.412496 0.070690
									CHANNELS 3 Xrotation Yrotation Zrotation
									JOINT RightArm
									{
										OFFSET -8.771282 -2.981682 -0.094208
										CHANNELS 3 Xrotation Yrotation Zrotation
										JOINT RightForeArm
										{
											OFFSET -8.494598 0.000000 0.000000
											CHANNELS 3 Xrotation Yrotation Zrotation
											JOINT RightHand
											{
												OFFSET -18.483803 0.000000 0.000001
												CHANNELS 3 Xrotation Yrotation Zrotation
												End Site
												{
													OFFSET 0 0 0
												}
											}
										}
									}
								}
							}
						}
					}
				}
			}
		}
	}
}
MOTION
Frames: 8
Frame Time: 0.03333333
-0.813826 33.007221 -1.576935 0.000000 0.000000 0.000000 1.815906 6.253171 5.605596 -7.815085 4.966065 3.702790 16.059619 4.044875 -0.955208 -8.637455 1.588910 -8.455593 0.668787 0.124849 -1.764169 0.000000 0.000000 0.000000 2.358739 5.732917 5.757308 -11.446519 -10.254762 -17.518209 33.022465 2.915552 -0.705206 -25.158467 -11.038976 8.053596 -2.007768 0.063095 -0.188942 0.000000 0.000000 0.000000 2.710278 6.204601 5.353765 8.077844 -1.100751 7.625852 2.261510 -0.187360 1.562742 0.798718 -0.728402 0.457066 0.000000 0.000000 0.000000 1.429173 -0.174097 1.323845 0.623285 0.448788 2.691896 -4.771004 -13.507300 -1.152451 0.000000 0.000000 0.000000 1.889501 -0.245043 1.363744 1.100896 -4.992960 -12.059573 0.337994 0.075214 -1.358849 6.797297 -7.360741 -40.900559 0.181802 -68.791152 0.072328 0.000000 0.000000 0.000000 2.061808 -0.091952 1.245647 1.271414 16.552378 13.573917 -1.175352 1.199754 0.143707 -27.519609 13.956001 60.784872 -135.574529 88.454269 135.092454 0.000000 0.000000 0.000000 
-0.810348 33.004646 -1.540749 0.000000 0.000000 0.000000 1.799058 6.012713 5.632591 -7.579609 4.961926 3.736935 16.011483 4.194904 -0.918069 -8.802913 1.549290 -8.480576 0.705698 0.129897 -1.778844 0.000000 0.000000 0.000000 2.335150 5.470061 5.786960 -11.220562 -9.681116 -17.386933 32.978254 2.537732 -0.716601 -25.271522 -11.139402 8.120139 -1.953764 0.055298 -0.211097 0.000000 0.000000 0.000000 2.713332 6.082163 5.365508 8.020121 -1.425197 7.651904 2.228934 -0.226368 1.558925 0.809492 -0.826231 0.421605 0.000000 0.000000 0.000000 1.430569 -0.211459 1.307450 0.612037 0.632252 2.539179 -5.481526 -13.245613 -1.375779 0.000000 0.000000 0.000000 1.856109 -0.274401 1.379610 1.045214 -5.117061 -12.197358 0.452857 0.297430 -1.433765 7.086300 -7.660084 -40.858038 0.228688 -68.974529 0.056850 0.000000 0.000000 0.000000 2.035032 -0.163514 1.244997 1.357533 17.037871 13.741633 -1.300021 1.377853 0.192867 -21.990293 16.543669 60.472753 -170.407141 84.223554 169.884071 0.000000 0.000000 0.000000 
-0.792462 33.004166 -1.514484 0.000000 0.000000 0.000000 1.739341 5.752537 5.637127 -7.318914 4.984748 3.762665 15.992746 4.388423 -0.893690 -9.003579 1.481744 -8.476964 0.762377 0.132446 -1.786726 0.000000 0.000000 0.000000 2.265081 5.195913 5.790735 -10.914785 -9.097485 -17.262647 32.868472 2.153339 -0.719432 -25.303167 -11.231152 8.196994 -1.894700 0.045368 -0.231832 0.000000 0.000000 0.000000 2.697473 5.891923 5.352196 7.970575 -1.778192 7.652763 2.189603 -0.307596 1.549786 0.832387 -0.881955 0.381481 0.000000 0.000000 0.000000 1.421267 -0.283849 1.297214 0.618775 0.821882 2.357612 -6.184339 -12.906370 -1.657997 0.000000 0.000000 0.000000 1.822507 -0.337399 1.395869 0.990753 -5.269380 -12.262025 0.547890 0.554507 -1.443330 7.473048 -8.105432 -40.778545 0.279344 -69.077945 0.028798 0.000000 0.000000 0.000000 2.005489 -0.268267 1.248788 1.471388 17.595667 13.730953 -1.385816 1.480240 0.314381 -16.861224 20.164011 59.567808 -174.717263 80.858081 174.162024 0.000000 0.000000 0.000000 
-0.760953 33.007732 -1.494118 0.000000 0.000000 0.000000 1.626467 5.461768 5.621969 -7.014793 5.025516 3.771469 15.997299 4.623837 -0.874109 -9.241757 1.403416 -8.463598 0.832372 0.133921 -1.784333 0.000000 0.000000 0.000000 2.137199 4.896890 5.772414 -10.549955 -8.523976 -17.151541 32.710790 1.787500 -0.713054 -25.219411 -11.307567 8.308343 -1.885342 0.033007 -0.250781 0.000000 0.000000 0.000000 2.640057 5.601550 5.316415 7.923640 -2.133933 7.604233 2.146194 -0.413239 1.530084 0.852091 -0.911963 0.366656 0.000000 0.000000 0.000000 1.405276 -0.375133 1.282681 0.643459 1.002101 2.145736 -6.822531 -12.523677 -1.977929 0.000000 0.000000 0.000000 1.792666 -0.420707 1.406504 0.939803 -5.421563 -12.232049 0.619428 0.852848 -1.410776 7.903945 -8.674423 -40.683380 0.368841 -69.141677 0.025956 0.000000 0.000000 0.000000 1.972421 -0.390851 1.247623 1.603248 18.281157 13.574258 -1.505768 1.599679 0.393778 -12.134558 24.746149 57.781952 -176.062251 78.773091 175.484977 0.000000 0.000000 0.000000 
-0.718165 33.014690 -1.478065 0.000000 0.000000 0.000000 1.456045 5.134355 5.587112 -6.643213 5.088798 3.764214 16.005208 4.906769 -0.855444 -9.520473 1.337132 -8.440033 0.903229 0.134440 -1.767799 0.000000 0.000000 0.000000 1.952880 4.556437 5.732632 -10.152718 -7.967922 -17.049267 32.512281 1.456838 -0.701808 -25.027367 -11.359980 8.437039 -1.920107 0.018497 -0.263903 0.000000 0.000000 0.000000 2.521425 5.209239 5.263358 7.872277 -2.457918 7.486049 2.109508 -0.522185 1.491704 0.811783 -0.916050 0.373668 0.000000 0.000000 0.000000 1.383590 -0.458718 1.253698 0.698271 1.167241 1.908261 -7.357360 -12.175932 -2.307432 0.000000 0.000000 0.000000 1.772750 -0.503956 1.406032 0.889396 -5.564514 -12.097495 0.690250 1.141158 -1.341370 8.278668 -9.310653 -40.600267 0.484927 -69.218114 0.048284 0.000000 0.000000 0.000000 1.917928 -0.509519 1.233485 1.742811 19.123783 13.287143 -1.523894 1.725202 0.335444 -7.743281 30.092017 54.855278 -176.189552 77.867094 175.590599 0.000000 0.000000 0.000000 
-0.666693 33.024940 -1.463539 0.000000 0.000000 0.000000 1.236004 4.751747 5.528645 -6.186595 5.189749 3.744506 16.003756 5.243421 -0.838170 -9.849444 1.300757 -8.397221 0.970965 0.134942 -1.736808 0.000000 0.000000 0.000000 1.715656 4.163145 5.669387 -9.742721 -7.428879 -16.948602 32.272149 1.169648 -0.689506 -24.762040 -11.382568 8.545716 -1.977100 0.002219 -0.267193 0.000000 0.000000 0.000000 2.337616 4.738986 5.189357 7.810070 -2.714717 7.286589 2.079453 -0.609872 1.427769 0.715009 -0.996496 0.411229 0.000000 0.000000 0.000000 1.357206 -0.512058 1.201703 0.783719 1.302401 1.662444 -7.778533 -11.939489 -2.625797 0.000000 0.000000 0.000000 1.754104 -0.565551 1.388722 0.836454 -5.705129 -11.870095 0.785268 1.433294 -1.258122 8.483477 -9.979218 -40.571320 0.616936 -69.348386 0.096454 0.000000 0.000000 0.000000 1.835167 -0.609693 1.196876 1.887633 20.132225 12.913501 -1.492943 1.869216 0.219281 -3.489786 35.837873 50.647830 -175.577198 77.954793 174.954667 0.000000 0.000000 0.000000 
-0.609627 33.038128 -1.452324 0.000000 0.000000 0.000000 0.983226 4.289205 5.435723 -5.650157 5.344373 3.734790 15.997292 5.634001 -0.822287 -10.241442 1.306113 -8.326591 1.051693 0.133755 -1.698593 0.000000 0.000000 0.000000 1.456985 3.714396 5.573847 -9.355933 -6.890872 -16.841457 31.995379 0.931440 -0.676852 -24.433071 -11.372510 8.614778 -2.041630 -0.014681 -0.261835 0.000000 0.000000 0.000000 2.096066 4.213272 5.085715 7.734644 -2.880743 7.002550 2.059594 -0.665665 1.336817 0.647237 -1.178720 0.448098 0.000000 0.000000 0.000000 1.333484 -0.525634 1.125474 0.860890 1.407148 1.431062 -8.103747 -11.895355 -2.909928 0.000000 0.000000 0.000000 1.723126 -0.594393 1.348196 0.776958 -5.858585 -11.591313 0.899616 1.656444 -1.137997 8.450233 -10.641537 -40.622864 0.717126 -69.532200 0.137103 0.000000 0.000000 0.000000 1.720790 -0.681355 1.138190 2.030624 21.291286 12.534202 -1.470984 1.991070 0.126103 0.845960 41.596467 45.242019 -174.355673 78.807679 173.718294 0.000000 0.000000 0.000000 
-0.548486 33.052780 -1.446297 0.000000 0.000000 0.000000 0.725417 3.736957 5.290959 -5.059500 5.560808 3.762702 16.004547 6.065445 -0.813352 -10.725756 1.355314 -8.225315 1.153819 0.132154 -1.659068 0.000000 0.000000 0.000000 1.199237 3.202280 5.430689 -9.022717 -6.347691 -16.714303 31.680282 0.753943 -0.661598 -24.007032 -11.327980 8.656916 -2.109620 -0.030728 -0.254490 0.000000 0.000000 0.000000 1.826446 3.655670 4.938559 7.651738 -2.941889 6.651001 2.052024 -0.687239 1.224990 0.656162 -1.396577 0.486915 0.000000 0.000000 0.000000 1.309574 -0.500782 1.034770 0.922350 1.464275 1.233130 -8.362639 -12.086072 -3.152547 0.000000 0.000000 0.000000 1.677879 -0.586894 1.287067 0.711223 -6.046057 -11.298331 1.022545 1.827569 -1.008700 8.188084 -11.292661 -40.750480 0.744913 -69.712708 0.140449 0.000000 0.000000 0.000000 1.581682 -0.720596 1.065666 2.168932 22.574612 12.196817 -1.442231 2.063210 0.129396 5.430769 46.934871 38.815381 -172.393264 80.307547 171.763507 0.000000 0.000000 0.000000 
